# xmcd CD database file
#
# Track frame offsets:
#	150
#	17280
#	34957
#
# Disc length: 693 seconds
#
# Revision: 0
# Processed by: cddbd v1.5PL3 Copyright (c) Steve Scherf et al.
# Submitted via: CDex 1.50
#
DISCID=1702b303
DTITLE=衛藤利恵 - この海へ
DYEAR=1996
DGENRE=JPop
TTITLE0=この海へ
TTITLE1=泣いたカラスよ
TTITLE2=この海へ(Instrumental)
EXTD=YEAR: 1996
EXTT0=
EXTT1=
EXTT2=
PLAYORDER=
